<svg width="800" height="800" viewBox="0 0 1024 1024" class="prefix__icon" xmlns="http://www.w3.org/2000/svg"><path d="M900 19.9h-3.5c-26.1 0-47.3 21.2-47.3 47.3v888.5c0 26.1 21.2 47.3 47.3 47.3h3.5c26.1 0 47.3-21.2 47.3-47.3V67.2c0-26.1-21.2-47.3-47.3-47.3z" fill="#4a5699"/><path d="M132.6 19.9h-3.4c-26.1 0-47.3 21.2-47.3 47.3v888.5c0 26.1 21.2 47.3 47.3 47.3h3.4c26.1 0 47.3-21.2 47.3-47.3V67.2c0-26.1-21.2-47.3-47.3-47.3z" fill="#c45fa0"/><path d="M899.5 19.9H129.2c-26.1 0-47.3 21.2-47.3 47.3v3.4c0 26.1 21.2 47.3 47.3 47.3h770.3c26.1 0 47.3-21.2 47.3-47.3v-3.4c0-26.1-21.2-47.3-47.3-47.3z" fill="#6277ba"/><path d="M899.5 905H129.2c-26.1 0-47.3 21.2-47.3 47.3v3.4c0 26.1 21.2 47.3 47.3 47.3h770.3c26.1 0 47.3-21.2 47.3-47.3v-3.4c0-26.1-21.2-47.3-47.3-47.3z" fill="#c45fa0"/><path d="M718 543.2H542c-26.1 0-47.3 21.2-47.3 47.3v3.7c0 26.1 21.2 47.3 47.3 47.3h175.9c26.1 0 47.3-21.2 47.3-47.3v-3.7c0-26.1-21.2-47.3-47.3-47.3z" fill="#e5594f"/><path d="M689.3 198.8H513.4c-26.1 0-47.3 21.2-47.3 47.3v3.7c0 26.1 21.2 47.3 47.3 47.3h175.9c26.1 0 47.3-21.2 47.3-47.3v-3.7c0-26.1-21.2-47.3-47.3-47.3z" fill="#f0d043"/><path d="M757.8 353.1H261.2c-26.1 0-47.3 21.2-47.3 47.3v3.4c0 26.1 21.2 47.3 47.3 47.3h496.6c26.1 0 47.3-21.2 47.3-47.3v-3.4c0-26.1-21.2-47.3-47.3-47.3z" fill="#e5594f"/><path d="M762.6 726.2H266c-26.1 0-47.3 21.2-47.3 47.3v3.4c0 26.1 21.2 47.3 47.3 47.3h496.6c26.1 0 47.3-21.2 47.3-47.3v-3.4c0-26.1-21.2-47.3-47.3-47.3z" fill="#6277ba"/><path d="M355.7 543.3h-74.3c-26.1 0-47.3 21.2-47.3 47.3v3.4c0 26.1 21.2 47.3 47.3 47.3h74.3c26.1 0 47.3-21.2 47.3-47.3v-3.4c0-26.1-21.2-47.3-47.3-47.3zM285.9 248a49 49 0 1098 0 49 49 0 10-98 0z" fill="#f39a2b"/></svg>